#N canvas 737 183 489 569 10;
#X obj 203 149 outlet~;
#X obj 77 29 inlet;
#N canvas 458 75 506 635 tone 1;
#X obj 49 386 osc~;
#X floatatom 55 292 5 0 0 0 - - -, f 5;
#X obj 49 472 *~;
#X obj 205 309 bng 15 250 50 0 empty empty empty 17 7 0 10 -262144
-1 -1;
#X obj 55 266 mtof;
#X floatatom 55 185 5 0 0 0 - - -, f 5;
#X obj 49 522 outlet~;
#X obj 55 68 inlet;
#X obj 55 121 * 24;
#X obj 55 155 + 60;
#X obj 55 213 t b f;
#X msg 55 91 \$2;
#X obj 49 495 *~ 0.9;
#X obj 86 386 osc~;
#X obj 125 391 osc~;
#X obj 84 342 * 2;
#X obj 133 343 * 3;
#X obj 182 391 vline~;
#X msg 182 358 0.8 5 \, 0.7 5 5 \, 0.3 200 10 \, 0 500 210;
#X obj 181 423 *~;
#X obj 78 428 *~ 0.05;
#X obj 124 424 *~ 0.02;
#X connect 0 0 2 0;
#X connect 1 0 0 0;
#X connect 1 0 15 0;
#X connect 1 0 16 0;
#X connect 2 0 12 0;
#X connect 3 0 18 0;
#X connect 4 0 1 0;
#X connect 5 0 10 0;
#X connect 7 0 11 0;
#X connect 8 0 9 0;
#X connect 9 0 5 0;
#X connect 10 0 3 0;
#X connect 10 1 4 0;
#X connect 11 0 8 0;
#X connect 12 0 6 0;
#X connect 13 0 20 0;
#X connect 14 0 21 0;
#X connect 15 0 13 0;
#X connect 16 0 14 0;
#X connect 17 0 19 1;
#X connect 17 0 19 0;
#X connect 18 0 17 0;
#X connect 19 0 2 1;
#X connect 20 0 2 0;
#X connect 21 0 2 0;
#X restore 203 122 pd tone;
#N canvas 392 23 1081 751 visual 0;
#X obj 17 56 inlet;
#X obj 16 209 nbx 5 14 -1e+37 1e+37 0 0 empty empty empty 0 -8 0 10
-262144 -1 -1 0.12 256;
#X obj 16 235 pack 0 0 0, f 22;
#X obj 16 338 expr $f1 - $f3;
#X obj 234 338 expr $f1 + $f3;
#X obj 145 209 nbx 5 14 -1e+37 1e+37 0 0 empty empty empty 0 -8 0 10
-262144 -1 -1 0.1 256;
#X obj 109 338 expr $f2 - $f3*$f4;
#X obj 342 339 expr $f2 + $f3*$f4;
#X obj 250 241 nbx 5 14 -1e+37 1e+37 0 0 empty empty empty 0 -8 0 10
-262144 -1 -1 0.6 256;
#X obj 80 209 nbx 5 14 -1e+37 1e+37 0 0 empty empty empty 0 -8 0 10
-262144 -1 -1 0.6 256;
#X text 100 193 x;
#X text 164 193 y;
#X text 21 193 radius;
#X msg 16 265 \$2 \$3 \$1;
#X obj 16 91 t b l;
#X obj 96 130 unpack;
#X obj 145 156 * -1;
#X obj 145 178 + 1;
#X obj 249 219 receive XYoffset;
#X obj 487 207 nbx 5 14 -1e+37 1e+37 0 0 empty empty empty 0 -8 0 10
-262144 -1 -1 0.13 256;
#X obj 487 371 pack 0 0 0 0, f 55;
#X obj 487 233 pack 0 0 0, f 22;
#X obj 487 299 t l l l l b, f 70;
#X obj 487 336 expr $f1 - $f3;
#X obj 705 336 expr $f1 + $f3;
#X obj 616 207 nbx 5 14 -1e+37 1e+37 0 0 empty empty empty 0 -8 0 10
-262144 -1 -1 0.1 256;
#X obj 580 336 expr $f2 - $f3*$f4;
#X obj 813 337 expr $f2 + $f3*$f4;
#X obj 721 239 nbx 5 14 -1e+37 1e+37 0 0 empty empty empty 0 -8 0 10
-262144 -1 -1 0.6 256;
#X obj 551 207 nbx 5 14 -1e+37 1e+37 0 0 empty empty empty 0 -8 0 10
-262144 -1 -1 0.6 256;
#X text 571 191 x;
#X text 635 191 y;
#X text 492 191 radius;
#X msg 487 263 \$2 \$3 \$1;
#X obj 567 128 unpack;
#X obj 616 154 * -1;
#X obj 616 176 + 1;
#X obj 720 217 receive XYoffset;
#X obj 487 168 + 0.01;
#X obj 86 691 outlet;
#X obj 16 168 line 40;
#X msg 465 422 list /ppLCD paintoval \$1 \$2 \$3 \$4;
#X obj 16 523 pack 0 0 0 0 0 0 0, f 55;
#X obj 16 301 t l l l l l, f 70;
#X msg 16 556 list /ppLCD paintoval \$1 \$2 \$3 \$4 \$5 \$6 \$7 1;
#N canvas 0 22 272 304 scalecolour 0;
#X obj 40 18 inlet;
#X obj 40 236 outlet;
#X obj 97 237 outlet;
#X obj 154 238 outlet;
#X obj 40 179 * 0.857;
#X obj 97 179 * 0.547;
#X obj 154 181 * 0.284;
#X obj 40 207 + 0.043;
#X obj 97 207 + 0.353;
#X obj 154 209 + 0.616;
#X msg 40 46 \$3;
#X obj 40 115 *;
#X obj 40 74 * 8;
#X connect 0 0 10 0;
#X connect 4 0 7 0;
#X connect 5 0 8 0;
#X connect 6 0 9 0;
#X connect 7 0 1 0;
#X connect 8 0 2 0;
#X connect 9 0 3 0;
#X connect 10 0 12 0;
#X connect 11 0 4 0;
#X connect 11 0 5 0;
#X connect 11 0 6 0;
#X connect 12 0 11 0;
#X connect 12 0 11 1;
#X restore 333 433 pd scalecolour;
#X obj 468 135 pipe 200;
#X msg 16 143 0 \, 0.12 300;
#X connect 0 0 14 0;
#X connect 1 0 2 0;
#X connect 2 0 13 0;
#X connect 3 0 42 0;
#X connect 4 0 42 2;
#X connect 5 0 2 2;
#X connect 6 0 42 1;
#X connect 7 0 42 3;
#X connect 8 0 6 3;
#X connect 8 0 7 3;
#X connect 9 0 2 1;
#X connect 13 0 43 0;
#X connect 14 0 47 0;
#X connect 14 1 15 0;
#X connect 14 1 34 0;
#X connect 15 0 9 0;
#X connect 15 1 16 0;
#X connect 16 0 17 0;
#X connect 17 0 5 0;
#X connect 18 0 8 0;
#X connect 19 0 21 0;
#X connect 20 0 41 0;
#X connect 21 0 33 0;
#X connect 22 0 23 0;
#X connect 22 1 26 0;
#X connect 22 2 24 0;
#X connect 22 3 27 0;
#X connect 23 0 20 0;
#X connect 24 0 20 2;
#X connect 25 0 21 2;
#X connect 26 0 20 1;
#X connect 27 0 20 3;
#X connect 28 0 26 3;
#X connect 28 0 27 3;
#X connect 29 0 21 1;
#X connect 33 0 22 0;
#X connect 34 0 29 0;
#X connect 34 1 35 0;
#X connect 35 0 36 0;
#X connect 36 0 25 0;
#X connect 37 0 28 0;
#X connect 38 0 19 0;
#X connect 40 0 1 0;
#X connect 40 0 46 0;
#X connect 41 0 39 0;
#X connect 42 0 44 0;
#X connect 43 0 3 0;
#X connect 43 1 6 0;
#X connect 43 2 4 0;
#X connect 43 3 7 0;
#X connect 43 4 45 0;
#X connect 44 0 39 0;
#X connect 45 0 42 4;
#X connect 45 1 42 5;
#X connect 45 2 42 6;
#X connect 46 0 38 0;
#X connect 47 0 40 0;
#X restore 77 119 pd visual;
#X obj 77 149 send paintDroplet;
#X obj 77 74 route 1;
#X text 129 73 only consider "note-ons";
#X connect 1 0 5 0;
#X connect 2 0 0 0;
#X connect 3 0 4 0;
#X connect 5 0 2 0;
#X connect 5 0 3 0;
