#N canvas 0 95 858 621 10;
#X obj 49 206 osc~;
#X obj 49 122 *~ 10;
#X floatatom 49 36 5 0 0 0 - - -, f 5;
#X floatatom 122 77 5 0 0 0 - - -, f 5;
#X obj 49 171 +~ 300;
#X floatatom 109 145 5 0 0 0 - - -, f 5;
#X obj 49 322 *~;
#X obj 207 321 line~;
#X obj 246 266 del 20;
#X obj 220 249 bng 15 250 50 0 empty empty empty 17 7 0 10 -262144
-1 -1;
#X obj 214 108 mtof;
#X floatatom 232 40 5 0 0 0 - - -, f 5;
#X msg 207 288 1 2;
#X msg 246 292 0 150;
#X obj 49 76 osc~ 30;
#X obj 139 522 outlet~;
#X obj 232 11 inlet;
#X obj 345 54 * 24;
#X obj 349 88 + 60;
#X obj 352 125 t b f;
#X obj 49 468 *~ 1;
#X msg 339 24 \$2;
#X connect 0 0 6 0;
#X connect 1 0 4 0;
#X connect 2 0 14 0;
#X connect 3 0 1 1;
#X connect 4 0 0 0;
#X connect 5 0 4 1;
#X connect 6 0 20 0;
#X connect 7 0 6 1;
#X connect 8 0 13 0;
#X connect 9 0 12 0;
#X connect 9 0 8 0;
#X connect 10 0 5 0;
#X connect 11 0 19 0;
#X connect 12 0 7 0;
#X connect 13 0 7 0;
#X connect 14 0 1 0;
#X connect 16 0 21 0;
#X connect 17 0 18 0;
#X connect 18 0 11 0;
#X connect 19 0 9 0;
#X connect 19 1 10 0;
#X connect 20 0 15 0;
#X connect 21 0 17 0;
