#N canvas 84 56 684 621 10;
#X obj 21 582 dac~;
#X text 350 452 By Kristian Nymoen \, 2015;
#N canvas 619 23 473 412 reverb-stuff 0;
#X obj 208 103 hsl 128 15 0 1 0 1 empty empty 'roomsize' 20 8 0 10
-262144 -260097 -1 11557 0;
#X obj 148 136 hsl 128 15 0 2 0 1 empty empty damp 20 8 0 10 -262144
-260097 -1 11798 0;
#X floatatom 139 114 5 0 0 0 - - -, f 5;
#X floatatom 154 156 5 0 0 0 - - -, f 5;
#X obj 258 229 hsl 128 15 0 1 0 1 empty empty wet 20 8 0 10 -262144
-260097 -1 3810 0;
#X obj 163 179 hsl 128 15 0 1 0 1 empty empty dry 20 8 0 10 -262144
-260097 -1 0 0;
#X floatatom 269 252 5 0 0 0 - - -, f 5;
#X floatatom 168 203 5 0 0 0 - - -, f 5;
#N canvas 335 277 634 321 vfreeverb~ 0;
#N canvas 261 41 778 367 combfilters-left1 0;
#X obj 46 244 +~;
#X obj 61 219 *~ 0.3;
#X obj 61 194 lop~ 1000;
#X obj 231 244 +~;
#X obj 246 219 *~ 0.3;
#X obj 246 194 lop~ 1000;
#X obj 429 218 *~ 0.3;
#X obj 429 193 lop~ 1000;
#X obj 414 241 +~;
#X obj 610 218 *~ 0.3;
#X obj 610 193 lop~ 1000;
#X obj 595 241 +~;
#X obj 61 141 delread~ \$0-comb1left;
#X obj 246 142 delread~ \$0-comb2left;
#X obj 429 141 delread~ \$0-comb3left;
#X obj 610 141 delread~ \$0-comb4left;
#X obj 46 268 delwrite~ \$0-comb1left 100;
#X obj 231 268 delwrite~ \$0-comb2left 100;
#X obj 414 267 delwrite~ \$0-comb3left 100;
#X obj 595 267 delwrite~ \$0-comb4left 100;
#X obj 61 97 r \$0-comb1left;
#X obj 246 97 r \$0-comb2left;
#X obj 429 95 r \$0-comb3left;
#X obj 610 96 r \$0-comb4left;
#X obj 112 170 r \$0-frequency;
#X obj 297 170 r \$0-frequency;
#X obj 480 167 r \$0-frequency;
#X obj 661 167 r \$0-frequency;
#X obj 46 28 inlet~;
#X obj 338 326 outlet~;
#X floatatom 70 119 5 0 0 0 - - -, f 5;
#X floatatom 255 121 5 0 0 0 - - -, f 5;
#X floatatom 439 119 5 0 0 0 - - -, f 5;
#X floatatom 622 121 5 0 0 0 - - -, f 5;
#X obj 279 58 clip 0 0.99;
#X obj 279 29 r \$0-room;
#X connect 0 0 16 0;
#X connect 1 0 0 1;
#X connect 2 0 1 0;
#X connect 3 0 17 0;
#X connect 4 0 3 1;
#X connect 5 0 4 0;
#X connect 6 0 8 1;
#X connect 7 0 6 0;
#X connect 8 0 18 0;
#X connect 9 0 11 1;
#X connect 10 0 9 0;
#X connect 11 0 19 0;
#X connect 12 0 2 0;
#X connect 12 0 29 0;
#X connect 13 0 5 0;
#X connect 13 0 29 0;
#X connect 14 0 7 0;
#X connect 14 0 29 0;
#X connect 15 0 10 0;
#X connect 15 0 29 0;
#X connect 20 0 12 0;
#X connect 20 0 30 0;
#X connect 21 0 13 0;
#X connect 21 0 31 0;
#X connect 22 0 14 0;
#X connect 22 0 32 0;
#X connect 23 0 15 0;
#X connect 23 0 33 0;
#X connect 24 0 2 1;
#X connect 25 0 5 1;
#X connect 26 0 7 1;
#X connect 27 0 10 1;
#X connect 28 0 0 0;
#X connect 28 0 3 0;
#X connect 28 0 8 0;
#X connect 28 0 11 0;
#X connect 34 0 1 1;
#X connect 34 0 4 1;
#X connect 34 0 6 1;
#X connect 34 0 9 1;
#X connect 35 0 34 0;
#X restore 15 100 pd combfilters-left1;
#N canvas 27 56 358 650 diffusor-left 0;
#X obj 51 107 *~ 0.5;
#X obj 36 132 +~;
#X obj 66 132 -~;
#X obj 36 26 inlet~;
#X obj 81 238 *~ 0.5;
#X obj 66 263 +~;
#X obj 96 263 -~;
#X obj 111 368 *~ 0.5;
#X obj 96 393 +~;
#X obj 126 393 -~;
#X obj 141 498 *~ 0.5;
#X obj 126 523 +~;
#X obj 156 523 -~;
#X obj 156 605 outlet~;
#X text 95 28 freeverb's diffusor;
#X obj 156 576 hip~ 5;
#X floatatom 214 70 5 0 0 0 - - -, f 5;
#X floatatom 246 203 5 0 0 0 - - -, f 5;
#X floatatom 280 334 5 0 0 0 - - -, f 5;
#X floatatom 304 464 5 0 0 0 - - -, f 5;
#X obj 51 53 r \$0-allpass1left;
#X obj 51 80 delread~ \$0-allpass1left;
#X obj 36 158 delwrite~ \$0-allpass1left 40;
#X obj 81 186 r \$0-allpass2left;
#X obj 81 211 delread~ \$0-allpass2left;
#X obj 66 290 delwrite~ \$0-allpass2left 40;
#X obj 111 317 r \$0-allpass3left;
#X obj 111 341 delread~ \$0-allpass3left;
#X obj 96 420 delwrite~ \$0-allpass3left 40;
#X obj 141 447 r \$0-allpass4left;
#X obj 141 471 delread~ \$0-allpass4left;
#X obj 126 550 delwrite~ \$0-allpass4left 40;
#X connect 0 0 1 1;
#X connect 1 0 22 0;
#X connect 2 0 5 0;
#X connect 2 0 6 1;
#X connect 3 0 1 0;
#X connect 3 0 2 1;
#X connect 4 0 5 1;
#X connect 5 0 25 0;
#X connect 6 0 8 0;
#X connect 6 0 9 1;
#X connect 7 0 8 1;
#X connect 8 0 28 0;
#X connect 9 0 11 0;
#X connect 9 0 12 1;
#X connect 10 0 11 1;
#X connect 11 0 31 0;
#X connect 12 0 15 0;
#X connect 15 0 13 0;
#X connect 20 0 16 0;
#X connect 20 0 21 0;
#X connect 21 0 0 0;
#X connect 21 0 2 0;
#X connect 23 0 17 0;
#X connect 23 0 24 0;
#X connect 24 0 4 0;
#X connect 24 0 6 0;
#X connect 26 0 18 0;
#X connect 26 0 27 0;
#X connect 27 0 7 0;
#X connect 27 0 9 0;
#X connect 29 0 19 0;
#X connect 29 0 30 0;
#X connect 30 0 10 0;
#X connect 30 0 12 0;
#X restore 15 168 pd diffusor-left;
#N canvas 312 366 778 367 combfilters-left2 0;
#X obj 46 244 +~;
#X obj 61 219 *~ 0.3;
#X obj 61 194 lop~ 1000;
#X obj 231 244 +~;
#X obj 246 219 *~ 0.3;
#X obj 246 194 lop~ 1000;
#X obj 429 218 *~ 0.3;
#X obj 429 193 lop~ 1000;
#X obj 414 241 +~;
#X obj 610 218 *~ 0.3;
#X obj 610 193 lop~ 1000;
#X obj 595 241 +~;
#X obj 112 170 r \$0-frequency;
#X obj 297 170 r \$0-frequency;
#X obj 480 167 r \$0-frequency;
#X obj 661 167 r \$0-frequency;
#X obj 46 28 inlet~;
#X obj 338 326 outlet~;
#X obj 61 90 r \$0-comb5left;
#X obj 61 141 delread~ \$0-comb5left;
#X obj 46 268 delwrite~ \$0-comb5left 100;
#X obj 246 90 r \$0-comb6left;
#X obj 246 142 delread~ \$0-comb6left;
#X obj 231 268 delwrite~ \$0-comb6left 100;
#X obj 429 88 r \$0-comb7left;
#X obj 429 141 delread~ \$0-comb7left;
#X obj 414 267 delwrite~ \$0-comb7left 100;
#X obj 610 89 r \$0-comb8left;
#X obj 610 141 delread~ \$0-comb8left;
#X obj 595 267 delwrite~ \$0-comb8left 100;
#X floatatom 70 116 5 0 0 0 - - -, f 5;
#X floatatom 261 118 5 0 0 0 - - -, f 5;
#X floatatom 440 117 5 0 0 0 - - -, f 5;
#X floatatom 620 116 5 0 0 0 - - -, f 5;
#X obj 279 58 clip 0 0.99;
#X obj 279 28 r \$0-room;
#X connect 0 0 20 0;
#X connect 1 0 0 1;
#X connect 2 0 1 0;
#X connect 3 0 23 0;
#X connect 4 0 3 1;
#X connect 5 0 4 0;
#X connect 6 0 8 1;
#X connect 7 0 6 0;
#X connect 8 0 26 0;
#X connect 9 0 11 1;
#X connect 10 0 9 0;
#X connect 11 0 29 0;
#X connect 12 0 2 1;
#X connect 13 0 5 1;
#X connect 14 0 7 1;
#X connect 15 0 10 1;
#X connect 16 0 0 0;
#X connect 16 0 3 0;
#X connect 16 0 8 0;
#X connect 16 0 11 0;
#X connect 18 0 19 0;
#X connect 18 0 30 0;
#X connect 19 0 2 0;
#X connect 19 0 17 0;
#X connect 21 0 22 0;
#X connect 21 0 31 0;
#X connect 22 0 5 0;
#X connect 22 0 17 0;
#X connect 24 0 25 0;
#X connect 24 0 32 0;
#X connect 25 0 7 0;
#X connect 25 0 17 0;
#X connect 27 0 28 0;
#X connect 27 0 33 0;
#X connect 28 0 10 0;
#X connect 28 0 17 0;
#X connect 34 0 1 1;
#X connect 34 0 4 1;
#X connect 34 0 6 1;
#X connect 34 0 9 1;
#X connect 35 0 34 0;
#X restore 36 134 pd combfilters-left2;
#N canvas 261 41 778 367 combfilters-right1 0;
#X obj 46 244 +~;
#X obj 61 219 *~ 0.3;
#X obj 61 194 lop~ 1000;
#X obj 231 244 +~;
#X obj 246 219 *~ 0.3;
#X obj 246 194 lop~ 1000;
#X obj 429 218 *~ 0.3;
#X obj 429 193 lop~ 1000;
#X obj 414 241 +~;
#X obj 610 218 *~ 0.3;
#X obj 610 193 lop~ 1000;
#X obj 595 241 +~;
#X obj 112 170 r \$0-frequency;
#X obj 297 170 r \$0-frequency;
#X obj 480 167 r \$0-frequency;
#X obj 661 167 r \$0-frequency;
#X obj 46 28 inlet~;
#X obj 338 326 outlet~;
#X floatatom 70 119 5 0 0 0 - - -, f 5;
#X floatatom 255 121 5 0 0 0 - - -, f 5;
#X floatatom 439 119 5 0 0 0 - - -, f 5;
#X floatatom 622 121 5 0 0 0 - - -, f 5;
#X obj 61 141 delread~ \$0-comb1right;
#X obj 246 142 delread~ \$0-comb2right;
#X obj 429 141 delread~ \$0-comb3right;
#X obj 610 141 delread~ \$0-comb4right;
#X obj 61 97 r \$0-comb1right;
#X obj 246 97 r \$0-comb2right;
#X obj 429 95 r \$0-comb3right;
#X obj 610 97 r \$0-comb4right;
#X obj 46 268 delwrite~ \$0-comb1right 100;
#X obj 231 268 delwrite~ \$0-comb2right 100;
#X obj 414 267 delwrite~ \$0-comb3right 100;
#X obj 595 267 delwrite~ \$0-comb4right 100;
#X obj 279 58 clip 0 0.99;
#X obj 279 28 r \$0-room;
#X connect 0 0 30 0;
#X connect 1 0 0 1;
#X connect 2 0 1 0;
#X connect 3 0 31 0;
#X connect 4 0 3 1;
#X connect 5 0 4 0;
#X connect 6 0 8 1;
#X connect 7 0 6 0;
#X connect 8 0 32 0;
#X connect 9 0 11 1;
#X connect 10 0 9 0;
#X connect 11 0 33 0;
#X connect 12 0 2 1;
#X connect 13 0 5 1;
#X connect 14 0 7 1;
#X connect 15 0 10 1;
#X connect 16 0 0 0;
#X connect 16 0 3 0;
#X connect 16 0 8 0;
#X connect 16 0 11 0;
#X connect 22 0 2 0;
#X connect 22 0 17 0;
#X connect 23 0 5 0;
#X connect 23 0 17 0;
#X connect 24 0 7 0;
#X connect 24 0 17 0;
#X connect 25 0 10 0;
#X connect 25 0 17 0;
#X connect 26 0 18 0;
#X connect 26 0 22 0;
#X connect 27 0 19 0;
#X connect 27 0 23 0;
#X connect 28 0 20 0;
#X connect 28 0 24 0;
#X connect 29 0 21 0;
#X connect 29 0 25 0;
#X connect 34 0 1 1;
#X connect 34 0 4 1;
#X connect 34 0 6 1;
#X connect 34 0 9 1;
#X connect 35 0 34 0;
#X restore 208 99 pd combfilters-right1;
#N canvas 312 366 778 367 combfilters-right2 0;
#X obj 46 244 +~;
#X obj 61 219 *~ 0.3;
#X obj 61 194 lop~ 1000;
#X obj 231 244 +~;
#X obj 246 219 *~ 0.3;
#X obj 246 194 lop~ 1000;
#X obj 429 218 *~ 0.3;
#X obj 429 193 lop~ 1000;
#X obj 414 241 +~;
#X obj 610 218 *~ 0.3;
#X obj 610 193 lop~ 1000;
#X obj 595 241 +~;
#X obj 112 170 r \$0-frequency;
#X obj 297 170 r \$0-frequency;
#X obj 480 167 r \$0-frequency;
#X obj 661 167 r \$0-frequency;
#X obj 46 28 inlet~;
#X obj 338 326 outlet~;
#X floatatom 70 116 5 0 0 0 - - -, f 5;
#X floatatom 261 118 5 0 0 0 - - -, f 5;
#X floatatom 440 117 5 0 0 0 - - -, f 5;
#X floatatom 620 116 5 0 0 0 - - -, f 5;
#X obj 279 58 clip 0 0.99;
#X obj 61 90 r \$0-comb5right;
#X obj 246 90 r \$0-comb6right;
#X obj 429 88 r \$0-comb7right;
#X obj 610 89 r \$0-comb8right;
#X obj 61 141 delread~ \$0-comb5right;
#X obj 246 142 delread~ \$0-comb6right;
#X obj 429 141 delread~ \$0-comb7right;
#X obj 610 141 delread~ \$0-comb8right;
#X obj 46 268 delwrite~ \$0-comb5right 100;
#X obj 231 268 delwrite~ \$0-comb6right 100;
#X obj 414 267 delwrite~ \$0-comb7right 100;
#X obj 595 267 delwrite~ \$0-comb8right 100;
#X obj 279 28 r \$0-room;
#X connect 0 0 31 0;
#X connect 1 0 0 1;
#X connect 2 0 1 0;
#X connect 3 0 32 0;
#X connect 4 0 3 1;
#X connect 5 0 4 0;
#X connect 6 0 8 1;
#X connect 7 0 6 0;
#X connect 8 0 33 0;
#X connect 9 0 11 1;
#X connect 10 0 9 0;
#X connect 11 0 34 0;
#X connect 12 0 2 1;
#X connect 13 0 5 1;
#X connect 14 0 7 1;
#X connect 15 0 10 1;
#X connect 16 0 0 0;
#X connect 16 0 3 0;
#X connect 16 0 8 0;
#X connect 16 0 11 0;
#X connect 22 0 1 1;
#X connect 22 0 4 1;
#X connect 22 0 6 1;
#X connect 22 0 9 1;
#X connect 23 0 18 0;
#X connect 23 0 27 0;
#X connect 24 0 19 0;
#X connect 24 0 28 0;
#X connect 25 0 20 0;
#X connect 25 0 29 0;
#X connect 26 0 21 0;
#X connect 26 0 30 0;
#X connect 27 0 2 0;
#X connect 27 0 17 0;
#X connect 28 0 5 0;
#X connect 28 0 17 0;
#X connect 29 0 7 0;
#X connect 29 0 17 0;
#X connect 30 0 10 0;
#X connect 30 0 17 0;
#X connect 35 0 22 0;
#X restore 225 133 pd combfilters-right2;
#N canvas 27 56 358 650 diffusor-right 0;
#X obj 51 107 *~ 0.5;
#X obj 36 132 +~;
#X obj 66 132 -~;
#X obj 36 26 inlet~;
#X obj 81 238 *~ 0.5;
#X obj 66 263 +~;
#X obj 96 263 -~;
#X obj 111 368 *~ 0.5;
#X obj 96 393 +~;
#X obj 126 393 -~;
#X obj 141 498 *~ 0.5;
#X obj 126 523 +~;
#X obj 156 523 -~;
#X obj 156 605 outlet~;
#X text 95 28 freeverb's diffusor;
#X obj 156 576 hip~ 5;
#X floatatom 214 70 5 0 0 0 - - -, f 5;
#X floatatom 244 203 5 0 0 0 - - -, f 5;
#X floatatom 280 334 5 0 0 0 - - -, f 5;
#X floatatom 304 464 5 0 0 0 - - -, f 5;
#X obj 51 53 r \$0-allpass1right;
#X obj 51 80 delread~ \$0-allpass1right;
#X obj 36 158 delwrite~ \$0-allpass1right 40;
#X obj 81 186 r \$0-allpass2right;
#X obj 81 211 delread~ \$0-allpass2right;
#X obj 66 290 delwrite~ \$0-allpass2right 40;
#X obj 111 317 r \$0-allpass3right;
#X obj 111 341 delread~ \$0-allpass3right;
#X obj 96 420 delwrite~ \$0-allpass3right 40;
#X obj 141 447 r \$0-allpass4right;
#X obj 141 471 delread~ \$0-allpass4right;
#X obj 126 550 delwrite~ \$0-allpass4right 40;
#X connect 0 0 1 1;
#X connect 1 0 22 0;
#X connect 2 0 5 0;
#X connect 2 0 6 1;
#X connect 3 0 1 0;
#X connect 3 0 2 1;
#X connect 4 0 5 1;
#X connect 5 0 25 0;
#X connect 6 0 8 0;
#X connect 6 0 9 1;
#X connect 7 0 8 1;
#X connect 8 0 28 0;
#X connect 9 0 11 0;
#X connect 9 0 12 1;
#X connect 10 0 11 1;
#X connect 11 0 31 0;
#X connect 12 0 15 0;
#X connect 15 0 13 0;
#X connect 20 0 16 0;
#X connect 20 0 21 0;
#X connect 21 0 0 0;
#X connect 21 0 2 0;
#X connect 23 0 17 0;
#X connect 23 0 24 0;
#X connect 24 0 4 0;
#X connect 24 0 6 0;
#X connect 26 0 18 0;
#X connect 26 0 27 0;
#X connect 27 0 7 0;
#X connect 27 0 9 0;
#X connect 29 0 19 0;
#X connect 29 0 30 0;
#X connect 30 0 10 0;
#X connect 30 0 12 0;
#X restore 208 169 pd diffusor-right;
#X obj 208 61 *~ 0.015;
#X obj 15 226 *~ 1;
#X obj 208 228 *~ 1;
#X obj 94 228 *~ 1;
#X obj 169 228 *~ 1;
#X obj 115 202 r \$0-dry;
#X obj 229 203 r \$0-wet;
#X obj 36 201 r \$0-wet;
#X obj 94 14 inlet~;
#X obj 208 14 inlet~;
#X obj 15 268 outlet~;
#X obj 169 269 outlet~;
#X obj 312 14 inlet;
#X obj 374 14 inlet;
#X obj 462 14 inlet;
#X obj 544 16 inlet;
#N canvas 0 22 207 207 room 0;
#X obj 32 35 inlet;
#X obj 32 63 * 0.28;
#X obj 32 94 + 0.7;
#X obj 32 160 outlet;
#X text 80 65 scaleroom;
#X text 76 94 offsetroom;
#X obj 47 126 s \$0-room;
#X connect 0 0 1 0;
#X connect 1 0 2 0;
#X connect 2 0 3 0;
#X connect 2 0 6 0;
#X restore 312 45 pd room;
#N canvas 684 169 244 376 frequency 0;
#X obj 60 222 samplerate~;
#X obj 33 8 inlet;
#X obj 33 194 t f b;
#X obj 33 249 *;
#X obj 53 303 s \$0-frequency;
#X obj 33 327 outlet;
#X obj 33 64 * 0.4;
#X text 76 66 scaledamp;
#X obj 33 38 clip 0 2;
#X obj 33 90 t b f;
#X obj 33 141 -;
#X msg 33 116 1;
#X obj 33 168 abs;
#X obj 33 275 * 0.5;
#X text 153 303 for [lop~];
#X connect 0 0 3 1;
#X connect 1 0 8 0;
#X connect 2 0 3 0;
#X connect 2 1 0 0;
#X connect 3 0 13 0;
#X connect 6 0 9 0;
#X connect 8 0 6 0;
#X connect 9 0 11 0;
#X connect 9 1 10 1;
#X connect 10 0 12 0;
#X connect 11 0 10 0;
#X connect 12 0 2 0;
#X connect 13 0 5 0;
#X connect 13 0 4 0;
#X restore 374 45 pd frequency;
#N canvas 0 22 170 187 scalewet 0;
#X obj 22 42 inlet;
#X obj 22 143 outlet;
#X obj 22 73 * 3;
#X text 49 74 scalewet;
#X obj 40 112 s \$0-wet;
#X connect 0 0 2 0;
#X connect 2 0 1 0;
#X connect 2 0 4 0;
#X restore 544 45 pd scalewet;
#N canvas 0 22 220 198 scaledry 0;
#X obj 32 74 * 2;
#X obj 32 40 inlet;
#X obj 32 141 outlet;
#X text 58 75 scaledry;
#X obj 41 105 s \$0-dry;
#X connect 0 0 2 0;
#X connect 0 0 4 0;
#X connect 1 0 0 0;
#X restore 462 45 pd scaledry;
#X floatatom 312 70 5 0 0 0 - - -, f 5;
#X floatatom 374 70 10 0 0 0 - - -, f 10;
#X floatatom 462 69 5 0 0 0 - - -, f 5;
#X floatatom 544 69 5 0 0 0 - - -, f 5;
#N canvas 405 27 635 684 tuning 0;
#X msg 332 81 1139 \, 1211 \, 1300 \, 1379 \, 1445 \, 1514 \, 1580
\, 1640;
#X text 72 57 combfilter tunings left;
#X text 377 56 combfilter tunings right;
#X text 71 360 allpass tunings left;
#X text 383 355 allpass tunings right;
#N canvas 243 170 195 233 sampstoms 0;
#X obj 27 21 inlet;
#X obj 54 86 samplerate~;
#X obj 27 111 /;
#X obj 27 57 t f b;
#X obj 27 136 * 1000;
#X obj 27 162 outlet;
#X connect 0 0 3 0;
#X connect 1 0 2 1;
#X connect 2 0 4 0;
#X connect 3 0 2 0;
#X connect 3 1 1 0;
#X connect 4 0 5 0;
#X restore 30 107 pd sampstoms;
#X msg 30 82 1116 \, 1188 \, 1277 \, 1356 \, 1422 \, 1491 \, 1557 \,
1617;
#X obj 57 188 +;
#X msg 57 159 1;
#X obj 30 135 t f b;
#X obj 87 188 f;
#X obj 30 56 t b b;
#X msg 87 159 0;
#X obj 57 212 pack f \$0;
#X msg 57 238 \$2-comb\$1left;
#X obj 30 282 s;
#X obj 57 265 symbol;
#N canvas 0 22 195 233 sampstoms 0;
#X obj 27 21 inlet;
#X obj 54 86 samplerate~;
#X obj 27 111 /;
#X obj 27 57 t f b;
#X obj 27 136 * 1000;
#X obj 27 162 outlet;
#X connect 0 0 3 0;
#X connect 1 0 2 1;
#X connect 2 0 4 0;
#X connect 3 0 2 0;
#X connect 3 1 1 0;
#X connect 4 0 5 0;
#X restore 332 107 pd sampstoms;
#X obj 359 188 +;
#X msg 359 159 1;
#X obj 332 135 t f b;
#X obj 389 188 f;
#X msg 389 159 0;
#X obj 359 212 pack f \$0;
#X obj 332 282 s;
#X obj 359 265 symbol;
#X obj 332 56 t b b;
#X msg 359 238 \$2-comb\$1right;
#X obj 30 360 t b b;
#N canvas 0 22 195 233 sampstoms 0;
#X obj 27 21 inlet;
#X obj 54 86 samplerate~;
#X obj 27 111 /;
#X obj 27 57 t f b;
#X obj 27 136 * 1000;
#X obj 27 162 outlet;
#X connect 0 0 3 0;
#X connect 1 0 2 1;
#X connect 2 0 4 0;
#X connect 3 0 2 0;
#X connect 3 1 1 0;
#X connect 4 0 5 0;
#X restore 30 411 pd sampstoms;
#X obj 57 492 +;
#X msg 57 463 1;
#X obj 30 439 t f b;
#X obj 87 492 f;
#X msg 87 463 0;
#X obj 57 516 pack f \$0;
#X obj 30 586 s;
#X obj 57 569 symbol;
#X obj 334 356 t b b;
#N canvas 0 22 195 233 sampstoms 0;
#X obj 27 21 inlet;
#X obj 54 86 samplerate~;
#X obj 27 111 /;
#X obj 27 57 t f b;
#X obj 27 136 * 1000;
#X obj 27 162 outlet;
#X connect 0 0 3 0;
#X connect 1 0 2 1;
#X connect 2 0 4 0;
#X connect 3 0 2 0;
#X connect 3 1 1 0;
#X connect 4 0 5 0;
#X restore 334 407 pd sampstoms;
#X obj 361 488 +;
#X msg 361 459 1;
#X obj 334 435 t f b;
#X obj 391 488 f;
#X msg 391 459 0;
#X obj 361 512 pack f \$0;
#X obj 334 582 s;
#X obj 361 565 symbol;
#X obj 30 22 loadbang;
#X obj 332 27 loadbang;
#X obj 30 334 loadbang;
#X obj 334 331 loadbang;
#X obj 268 41 bng 15 250 50 0 empty empty empty 17 7 0 10 -262144 -1
-1;
#X msg 30 386 225 \, 556 \, 441 \, 341;
#X msg 334 380 248 \, 579 \, 464 \, 364;
#X msg 57 542 \$2-allpass\$1left;
#X msg 361 539 \$2-allpass\$1right;
#X text 27 624 Original Freeverb delay line lengths are converted to
milliseconds \, based on samplerate.;
#X connect 0 0 17 0;
#X connect 5 0 9 0;
#X connect 6 0 5 0;
#X connect 7 0 10 0;
#X connect 7 0 13 0;
#X connect 8 0 7 0;
#X connect 9 0 15 0;
#X connect 9 1 8 0;
#X connect 10 0 7 1;
#X connect 11 0 6 0;
#X connect 11 1 12 0;
#X connect 12 0 10 0;
#X connect 13 0 14 0;
#X connect 14 0 16 0;
#X connect 16 0 15 1;
#X connect 17 0 20 0;
#X connect 18 0 21 0;
#X connect 18 0 23 0;
#X connect 19 0 18 0;
#X connect 20 0 24 0;
#X connect 20 1 19 0;
#X connect 21 0 18 1;
#X connect 22 0 21 0;
#X connect 23 0 27 0;
#X connect 25 0 24 1;
#X connect 26 0 0 0;
#X connect 26 1 22 0;
#X connect 27 0 25 0;
#X connect 28 0 53 0;
#X connect 28 1 34 0;
#X connect 29 0 32 0;
#X connect 30 0 33 0;
#X connect 30 0 35 0;
#X connect 31 0 30 0;
#X connect 32 0 36 0;
#X connect 32 1 31 0;
#X connect 33 0 30 1;
#X connect 34 0 33 0;
#X connect 35 0 55 0;
#X connect 37 0 36 1;
#X connect 38 0 54 0;
#X connect 38 1 44 0;
#X connect 39 0 42 0;
#X connect 40 0 43 0;
#X connect 40 0 45 0;
#X connect 41 0 40 0;
#X connect 42 0 46 0;
#X connect 42 1 41 0;
#X connect 43 0 40 1;
#X connect 44 0 43 0;
#X connect 45 0 56 0;
#X connect 47 0 46 1;
#X connect 48 0 11 0;
#X connect 49 0 26 0;
#X connect 50 0 28 0;
#X connect 51 0 38 0;
#X connect 52 0 11 0;
#X connect 52 0 28 0;
#X connect 52 0 26 0;
#X connect 52 0 38 0;
#X connect 53 0 29 0;
#X connect 54 0 39 0;
#X connect 55 0 37 0;
#X connect 56 0 47 0;
#X restore 410 141 pd tuning;
#X connect 0 0 1 0;
#X connect 1 0 7 0;
#X connect 2 0 1 0;
#X connect 3 0 5 0;
#X connect 4 0 5 0;
#X connect 5 0 8 0;
#X connect 6 0 3 0;
#X connect 6 0 0 0;
#X connect 6 0 4 0;
#X connect 6 0 2 0;
#X connect 7 0 16 0;
#X connect 8 0 17 0;
#X connect 9 0 16 0;
#X connect 10 0 17 0;
#X connect 11 0 10 1;
#X connect 11 0 9 1;
#X connect 12 0 8 1;
#X connect 13 0 7 1;
#X connect 14 0 6 0;
#X connect 14 0 9 0;
#X connect 15 0 6 0;
#X connect 15 0 10 0;
#X connect 18 0 22 0;
#X connect 19 0 23 0;
#X connect 20 0 25 0;
#X connect 21 0 24 0;
#X connect 22 0 26 0;
#X connect 23 0 27 0;
#X connect 24 0 29 0;
#X connect 25 0 28 0;
#X restore 83 297 pd vfreeverb~;
#X msg 315 84 1.858;
#X obj 188 29 loadbang;
#X obj 54 156 inlet~;
#X obj 68 355 outlet~;
#X msg 298 131 0;
#X msg 262 74 0.91;
#X msg 311 178 0.3;
#X connect 0 0 2 0;
#X connect 0 0 8 2;
#X connect 1 0 3 0;
#X connect 1 0 8 3;
#X connect 4 0 6 0;
#X connect 4 0 8 5;
#X connect 5 0 7 0;
#X connect 5 0 8 4;
#X connect 8 0 12 0;
#X connect 8 1 12 0;
#X connect 9 0 1 0;
#X connect 10 0 9 0;
#X connect 10 0 13 0;
#X connect 10 0 14 0;
#X connect 10 0 15 0;
#X connect 11 0 8 0;
#X connect 11 0 8 1;
#X connect 13 0 5 0;
#X connect 14 0 0 0;
#X connect 15 0 4 0;
#X restore 74 374 pd reverb-stuff;
#X msg 488 202 list /ppLCD clear;
#X obj 488 177 receive clearLCD;
#X obj 477 237 send toGUI;
#X obj 477 155 receive paintDroplet;
#X obj 21 23 receive fromGUI;
#X obj 21 49 list trim;
#X obj 21 101 route touch;
#X obj 479 104 send XYoffset;
#X msg 479 81 0.6;
#X obj 479 59 loadbang;
#X obj 74 350 *~ 1;
#X obj 21 75 route /ppXY /clearbutton, f 26;
#X obj 97 101 send clearLCD;
#N canvas 418 75 862 479 assignvoice 0;
#X obj 30 22 inlet;
#X obj 315 287 outlet;
#X obj 32 54 t l l;
#X msg 28 96 \$1 \$2;
#N canvas 0 22 450 278 (subpatch) 0;
#X array altVoice 5 float 3;
#A 0 0 1 1 0 1;
#X coords 0 1 5 -1 200 140 1;
#X restore 599 305 graph;
#X obj 46 210 sel 0;
#X obj 28 129 t l l;
#X obj 47 442 tabwrite altVoice, f 31;
#X msg 46 184 \$2;
#X msg 95 210 \$1;
#X msg 46 279 \$2;
#X obj 46 252 pack 0 0 0, f 17;
#X obj 46 306 t f f, f 32;
#X obj 46 371 + 1;
#X obj 47 406 % 2;
#X obj 46 341 tabread altVoice;
#X obj 315 126 unpack 0 0 0 0, f 41;
#X obj 342 180 tabread altVoice;
#X obj 315 155 t f f;
#X obj 342 204 * 5;
#X obj 315 227 +;
#X obj 315 260 pack 0 0 0 0, f 41;
#X text 296 41 patch for alternating between 1 and 6 \, 2 and 7 \,
3 and 8 \, etc... improves polyphony for graphics;
#X connect 0 0 2 0;
#X connect 2 0 3 0;
#X connect 2 1 16 0;
#X connect 3 0 6 0;
#X connect 5 0 11 0;
#X connect 6 0 8 0;
#X connect 6 1 9 0;
#X connect 8 0 5 0;
#X connect 9 0 11 1;
#X connect 10 0 12 0;
#X connect 11 0 10 0;
#X connect 12 0 15 0;
#X connect 12 1 7 1;
#X connect 13 0 14 0;
#X connect 14 0 7 0;
#X connect 15 0 13 0;
#X connect 16 0 18 0;
#X connect 16 1 21 1;
#X connect 16 2 21 2;
#X connect 16 3 21 3;
#X connect 17 0 19 0;
#X connect 18 0 20 0;
#X connect 18 1 17 0;
#X connect 19 0 20 1;
#X connect 20 0 21 0;
#X connect 21 0 1 0;
#X restore 21 131 pd assignvoice;
#N canvas 0 22 570 405 dorian-table 0;
#N canvas 0 22 450 278 (subpatch) 0;
#X array dorian 29 float 3;
#A 0 0 2 3 5 7 9 10 12 14 15 17 19 21 22 24 26 27 29 31 33 34 36 38
39 41 43 45 46 48;
#X coords 0 48 29 0 148 136 1 0 0;
#X restore 84 168 graph;
#X msg 59 38 \; dorian resize 29 \; dorian bounds 0 48 29 0 \; dorian
0 0 2 3 5 7 9 10 12 14 15 17 19 21 22 24 26 27 29 31 33 34 36 38 39
41 43 45 46 48 \;;
#X restore 467 12 pd dorian-table;
#X obj 21 159 route 10 1 2 3 4 5 6 7 8 9, f 63;
#X obj 21 461 *~;
#X obj 21 327 *~ 1;
#N canvas 0 23 1110 706 drone 0;
#X obj 447 38 noise~;
#X obj 195 48 loadbang;
#X msg 195 70 146.8;
#X obj 254 121 * 2;
#X obj 111 156 bp~ 146.8 200;
#X obj 220 159 bp~ 146.8 200;
#X obj 318 158 bp~ 146.8 200;
#X obj 421 160 bp~ 146.8 200;
#X obj 510 158 bp~ 146.8 200;
#X obj 613 160 bp~ 146.8 200;
#X obj 318 125 * 3;
#X obj 402 123 * 4;
#X obj 111 671 outlet~;
#X obj 165 617 delwrite~ dronedelay 400;
#X obj 126 290 +~ 1;
#X obj 126 324 *~ 0.7;
#X obj 111 352 *~;
#X obj 235 292 +~ 1;
#X obj 220 354 *~;
#X obj 342 293 +~ 1;
#X obj 327 355 *~;
#X obj 445 292 +~ 1;
#X obj 430 354 *~;
#X obj 540 285 +~ 1;
#X obj 525 347 *~;
#X obj 342 327 *~ 0.5;
#X obj 235 326 *~ 0.7;
#X obj 649 131 * 1.5;
#X obj 640 287 +~ 1;
#X obj 625 349 *~;
#X obj 748 290 +~ 1;
#X obj 733 352 *~;
#X obj 748 324 *~ 0.8;
#X obj 726 163 bp~ 349.2 200;
#X obj 520 112 * 7;
#X obj 640 321 *~ 0.7;
#X obj 111 590 lop~ 400;
#X obj 119 630 *~ 0.7;
#X obj 165 648 delread~ dronedelay 200;
#X obj 540 319 *~ 0.2;
#X obj 445 326 *~ 0.3;
#X obj 126 254 osc~ 0.053;
#X obj 235 256 osc~ 0.052;
#X obj 342 257 osc~ 0.025;
#X obj 445 256 osc~ 0.0015;
#X obj 544 257 osc~ 0.0352;
#X obj 644 259 osc~ 0.1072;
#X obj 752 262 osc~ 0.04572;
#X obj 877 291 +~ 1;
#X obj 862 353 *~;
#X obj 881 263 osc~ 0.04572;
#X obj 855 164 bp~ 493.8 200;
#X obj 877 324 *~ 0.5;
#X connect 0 0 4 0;
#X connect 0 0 5 0;
#X connect 0 0 6 0;
#X connect 0 0 7 0;
#X connect 0 0 8 0;
#X connect 0 0 9 0;
#X connect 0 0 33 0;
#X connect 0 0 51 0;
#X connect 1 0 2 0;
#X connect 2 0 3 0;
#X connect 2 0 4 1;
#X connect 2 0 10 0;
#X connect 2 0 11 0;
#X connect 2 0 27 0;
#X connect 2 0 34 0;
#X connect 3 0 5 1;
#X connect 4 0 16 0;
#X connect 5 0 18 0;
#X connect 6 0 20 0;
#X connect 7 0 22 0;
#X connect 8 0 24 0;
#X connect 9 0 29 0;
#X connect 10 0 6 1;
#X connect 11 0 7 1;
#X connect 14 0 15 0;
#X connect 15 0 16 1;
#X connect 16 0 36 0;
#X connect 17 0 26 0;
#X connect 18 0 36 0;
#X connect 19 0 25 0;
#X connect 20 0 36 0;
#X connect 21 0 40 0;
#X connect 22 0 36 0;
#X connect 23 0 39 0;
#X connect 24 0 36 0;
#X connect 25 0 20 1;
#X connect 26 0 18 1;
#X connect 27 0 9 1;
#X connect 28 0 35 0;
#X connect 29 0 36 0;
#X connect 30 0 32 0;
#X connect 31 0 36 0;
#X connect 32 0 31 1;
#X connect 33 0 31 0;
#X connect 34 0 8 1;
#X connect 35 0 29 1;
#X connect 36 0 13 0;
#X connect 37 0 13 0;
#X connect 38 0 12 0;
#X connect 38 0 37 0;
#X connect 39 0 24 1;
#X connect 40 0 22 1;
#X connect 41 0 14 0;
#X connect 42 0 17 0;
#X connect 43 0 19 0;
#X connect 44 0 21 0;
#X connect 45 0 23 0;
#X connect 46 0 28 0;
#X connect 47 0 30 0;
#X connect 48 0 52 0;
#X connect 49 0 36 0;
#X connect 50 0 48 0;
#X connect 51 0 49 0;
#X connect 52 0 49 1;
#X restore 71 498 pd drone;
#X obj 71 522 *~ 0.7;
#N canvas 0 22 515 465 tremolo 0;
#X obj 212 239 osc~ 20;
#X obj 137 310 +~, f 13;
#X obj 137 281 sig~ 0.5;
#X obj 275 63 list trim;
#X obj 275 37 receive fromSystem;
#X obj 275 89 route /tilts;
#X obj 275 112 unpack 0 0;
#X obj 275 136 abs;
#X obj 275 160 moses 0.5;
#X obj 326 182 - 0.5;
#X obj 275 182 t b;
#X msg 275 203 0 10;
#X obj 275 224 line~;
#X obj 212 266 *~, f 11;
#X msg 327 205 \$1 10;
#X obj 137 346 outlet~;
#X connect 0 0 13 0;
#X connect 1 0 15 0;
#X connect 2 0 1 0;
#X connect 3 0 5 0;
#X connect 4 0 3 0;
#X connect 5 0 6 0;
#X connect 6 0 7 0;
#X connect 7 0 8 0;
#X connect 8 0 10 0;
#X connect 8 1 9 0;
#X connect 9 0 14 0;
#X connect 10 0 11 0;
#X connect 11 0 12 0;
#X connect 12 0 13 1;
#X connect 13 0 1 1;
#X connect 14 0 12 0;
#X restore 58 435 pd tremolo;
#X obj 20 288 lop~ 3000;
#X obj 321 190 plingplongtone, f 5;
#X obj 358 190 plingplongtone, f 5;
#X obj 21 190 plingplongtone, f 5;
#X obj 208 190 plingplongtone, f 5;
#X obj 96 190 plingplongtone, f 5;
#X obj 58 190 plingplongtone, f 5;
#X obj 171 190 plingplongtone, f 5;
#X obj 133 190 plingplongtone, f 5;
#X obj 246 190 plingplongtone, f 5;
#X obj 283 190 plingplongtone, f 5;
#X text 362 358 todo:;
#X text 368 373 volume by pitch.. inside plingerplonger.pd;
#X connect 2 0 19 0;
#X connect 3 0 5 0;
#X connect 4 0 3 0;
#X connect 6 0 5 0;
#X connect 7 0 8 0;
#X connect 8 0 14 0;
#X connect 9 0 16 0;
#X connect 11 0 10 0;
#X connect 12 0 11 0;
#X connect 13 0 2 0;
#X connect 14 0 9 0;
#X connect 14 1 15 0;
#X connect 16 0 18 0;
#X connect 18 0 27 0;
#X connect 18 1 30 0;
#X connect 18 2 29 0;
#X connect 18 3 32 0;
#X connect 18 4 31 0;
#X connect 18 5 28 0;
#X connect 18 6 33 0;
#X connect 18 7 34 0;
#X connect 18 8 25 0;
#X connect 18 9 26 0;
#X connect 19 0 0 1;
#X connect 19 0 0 0;
#X connect 20 0 13 0;
#X connect 20 0 19 0;
#X connect 21 0 22 0;
#X connect 22 0 0 1;
#X connect 22 0 0 0;
#X connect 23 0 19 1;
#X connect 24 0 20 0;
#X connect 25 0 24 0;
#X connect 26 0 24 0;
#X connect 27 0 24 0;
#X connect 28 0 24 0;
#X connect 29 0 24 0;
#X connect 30 0 24 0;
#X connect 31 0 24 0;
#X connect 32 0 24 0;
#X connect 33 0 24 0;
#X connect 34 0 24 0;
