#N canvas 673 150 255 257 10;
#X obj 154 196 outlet~;
#X obj 37 27 inlet;
#N canvas 563 44 645 638 tone 0;
#X obj 351 384 osc~;
#X floatatom 351 293 5 0 0 0 - - -, f 5;
#X obj 336 490 *~;
#X obj 66 228 bng 15 250 50 0 empty empty empty 17 7 0 10 -262144 -1
-1;
#X obj 351 267 mtof;
#X obj 336 540 outlet~;
#X obj 355 25 inlet;
#X msg 351 137 \$2;
#X obj 336 513 *~ 0.9;
#X obj 386 384 osc~;
#X obj 446 384 osc~;
#X obj 386 340 * 2;
#X obj 446 341 * 3;
#X obj 66 354 vline~;
#X obj 66 392 *~;
#X obj 386 423 *~ 0.05;
#X obj 446 422 *~ 0.02;
#X obj 351 189 expr $i1;
#X obj 351 211 tabread dorian;
#X obj 351 236 + 50;
#X obj 351 166 * 29;
#X obj 355 65 route 1 2;
#X obj 270 102 t b l, f 14;
#X msg 66 311 0.7 5 \, 0.3 200 10 \, 0 500 210;
#X obj 66 419 *~;
#X obj 259 288 * -0.5;
#X obj 259 314 + 1;
#X connect 0 0 2 1;
#X connect 1 0 0 0;
#X connect 1 0 11 0;
#X connect 1 0 12 0;
#X connect 2 0 8 0;
#X connect 3 0 23 0;
#X connect 4 0 1 0;
#X connect 6 0 21 0;
#X connect 7 0 20 0;
#X connect 7 0 25 0;
#X connect 8 0 5 0;
#X connect 9 0 15 0;
#X connect 10 0 16 0;
#X connect 11 0 9 0;
#X connect 12 0 10 0;
#X connect 13 0 14 1;
#X connect 13 0 14 0;
#X connect 14 0 24 0;
#X connect 15 0 2 1;
#X connect 16 0 2 1;
#X connect 17 0 18 0;
#X connect 18 0 19 0;
#X connect 19 0 4 0;
#X connect 20 0 17 0;
#X connect 21 0 22 0;
#X connect 21 1 7 0;
#X connect 22 0 3 0;
#X connect 22 1 7 0;
#X connect 23 0 13 0;
#X connect 24 0 2 0;
#X connect 25 0 26 0;
#X connect 26 0 24 1;
#X restore 154 166 pd tone;
#N canvas 9 167 626 610 visual 0;
#X obj 16 26 inlet;
#X obj 16 309 nbx 5 14 -1e+37 1e+37 0 0 empty empty empty 0 -8 0 10
-262144 -1 -1 0 256;
#X obj 16 335 pack 0 0 0, f 22;
#X obj 145 309 nbx 5 14 -1e+37 1e+37 0 0 empty empty empty 0 -8 0 10
-262144 -1 -1 0 256;
#X obj 80 309 nbx 5 14 -1e+37 1e+37 0 0 empty empty empty 0 -8 0 10
-262144 -1 -1 0 256;
#X text 100 293 x;
#X text 164 293 y;
#X text 21 293 radius;
#X msg 16 365 \$2 \$3 \$1;
#X obj 80 223 unpack, f 11;
#X obj 145 256 * -1;
#X obj 145 278 + 1;
#X obj 391 311 nbx 5 14 -1e+37 1e+37 0 0 empty empty empty 0 -8 0 10
-262144 -1 -1 0 256;
#X obj 391 337 pack 0 0 0, f 22;
#X obj 520 311 nbx 5 14 -1e+37 1e+37 0 0 empty empty empty 0 -8 0 10
-262144 -1 -1 0 256;
#X obj 455 311 nbx 5 14 -1e+37 1e+37 0 0 empty empty empty 0 -8 0 10
-262144 -1 -1 0 256;
#X msg 391 367 \$2 \$3 \$1;
#X obj 455 213 unpack, f 11;
#X obj 520 258 * -1;
#X obj 520 280 + 1;
#X obj 391 272 + 0.01;
#X obj 16 560 outlet;
#X obj 16 158 line 40;
#X msg 391 446 list /ppLCD paintoval \$1 \$2 \$3 \$4;
#X msg 16 446 list /ppLCD paintoval \$1 \$2 \$3 \$4 \$5 \$6 \$7 1;
#X obj 391 247 pipe 200;
#X msg 16 133 0 \, 0.12 300;
#N canvas 46 92 931 454 RadXYtoXYcolour 0;
#X obj 33 52 inlet;
#X obj 33 381 outlet;
#X obj 33 278 expr $f1 - $f3;
#X obj 304 278 expr $f1 + $f3;
#X obj 168 278 expr $f2 - $f3*$f4;
#X obj 440 278 expr $f2 + $f3*$f4;
#X obj 320 225 nbx 5 14 -1e+37 1e+37 0 0 empty empty empty 0 -8 0 10
-262144 -1 -1 0 256;
#X obj 319 203 receive XYoffset;
#X obj 33 336 pack 0 0 0 0 0 0 0, f 136;
#X obj 33 114 t l l l l l, f 91;
#N canvas 0 22 272 304 scalecolour 0;
#X obj 40 18 inlet;
#X obj 40 236 outlet;
#X obj 97 237 outlet;
#X obj 154 238 outlet;
#X obj 40 179 * 0.857;
#X obj 97 179 * 0.547;
#X obj 154 181 * 0.284;
#X obj 40 207 + 0.043;
#X obj 97 207 + 0.353;
#X obj 154 209 + 0.616;
#X msg 40 46 \$3;
#X obj 40 115 *;
#X obj 40 74 * 8, f 41;
#X connect 0 0 10 0;
#X connect 4 0 7 0;
#X connect 5 0 8 0;
#X connect 6 0 9 0;
#X connect 7 0 1 0;
#X connect 8 0 2 0;
#X connect 9 0 3 0;
#X connect 10 0 12 0;
#X connect 11 0 4 0;
#X connect 11 0 5 0;
#X connect 11 0 6 0;
#X connect 12 0 11 0;
#X connect 12 0 11 1;
#X restore 576 278 pd scalecolour;
#X text 80 51 list of X Y and radius;
#X text 95 382 list of X1 Y1 X2 Y2 R G B A;
#X connect 0 0 9 0;
#X connect 2 0 8 0;
#X connect 3 0 8 2;
#X connect 4 0 8 1;
#X connect 5 0 8 3;
#X connect 6 0 4 3;
#X connect 6 0 5 3;
#X connect 7 0 6 0;
#X connect 8 0 1 0;
#X connect 9 0 2 0;
#X connect 9 1 4 0;
#X connect 9 2 3 0;
#X connect 9 3 5 0;
#X connect 9 4 10 0;
#X connect 10 0 8 4;
#X connect 10 1 8 5;
#X connect 10 2 8 6;
#X restore 16 410 pd RadXYtoXYcolour;
#N canvas 46 92 650 443 RadXYtoXY 0;
#X obj 33 82 inlet;
#X obj 33 370 outlet;
#X obj 33 277 expr $f1 - $f3;
#X obj 327 277 expr $f1 + $f3;
#X obj 180 278 expr $f2 - $f3*$f4;
#X obj 474 276 expr $f2 + $f3*$f4;
#X obj 368 203 nbx 5 14 -1e+37 1e+37 0 0 empty empty empty 0 -8 0 10
-262144 -1 -1 0 256;
#X obj 367 181 receive XYoffset;
#X text 80 81 list of X Y and radius;
#X obj 33 144 t l l l l, f 74;
#X obj 33 325 pack 0 0 0 0, f 74;
#X text 96 371 list of X1 Y1 X2 Y2;
#X connect 0 0 9 0;
#X connect 2 0 10 0;
#X connect 3 0 10 2;
#X connect 4 0 10 1;
#X connect 5 0 10 3;
#X connect 6 0 4 3;
#X connect 6 0 5 3;
#X connect 7 0 6 0;
#X connect 9 0 2 0;
#X connect 9 1 4 0;
#X connect 9 2 3 0;
#X connect 9 3 5 0;
#X connect 10 0 1 0;
#X restore 391 398 pd RadXYtoXY;
#X text 475 295 x;
#X text 534 296 y;
#X text 396 295 radius;
#X text 74 365 Draw circle;
#X text 450 368 Erase circle;
#X obj 443 33 inlet, f 11;
#X connect 0 0 26 0;
#X connect 1 0 2 0;
#X connect 2 0 8 0;
#X connect 3 0 2 2;
#X connect 4 0 2 1;
#X connect 8 0 27 0;
#X connect 9 0 4 0;
#X connect 9 1 10 0;
#X connect 10 0 11 0;
#X connect 11 0 3 0;
#X connect 12 0 13 0;
#X connect 13 0 16 0;
#X connect 14 0 13 2;
#X connect 15 0 13 1;
#X connect 16 0 28 0;
#X connect 17 0 15 0;
#X connect 17 1 18 0;
#X connect 18 0 19 0;
#X connect 19 0 14 0;
#X connect 20 0 12 0;
#X connect 22 0 1 0;
#X connect 22 0 25 0;
#X connect 23 0 21 0;
#X connect 24 0 21 0;
#X connect 25 0 20 0;
#X connect 26 0 22 0;
#X connect 27 0 24 0;
#X connect 28 0 23 0;
#X connect 34 0 17 0;
#X connect 34 0 9 0;
#X restore 37 166 pd visual;
#X obj 37 196 send paintDroplet;
#N canvas 0 22 448 470 repeater 0;
#X obj 81 53 inlet;
#X obj 78 427 outlet;
#X obj 87 96 route 1 2;
#X msg 78 210 1;
#X msg 112 210 0;
#X obj 156 137 t b;
#X obj 42 129 t b l;
#X obj 78 318 pack 0 0 0, f 21;
#X obj 207 246 unpack 0 0;
#X msg 78 362 \$2 \$3;
#X obj 128 427 outlet;
#X obj 78 388 t b l;
#X obj 246 434 outlet;
#X msg 194 371 1 \$2 \$3;
#X msg 254 371 2 \$1 \$2, f 19;
#X obj 78 261 metro 5000;
#X connect 0 0 2 0;
#X connect 2 0 6 0;
#X connect 2 1 8 0;
#X connect 2 1 14 0;
#X connect 2 2 5 0;
#X connect 3 0 15 0;
#X connect 4 0 15 0;
#X connect 5 0 4 0;
#X connect 6 0 3 0;
#X connect 6 1 8 0;
#X connect 7 0 9 0;
#X connect 7 0 13 0;
#X connect 8 0 7 1;
#X connect 8 1 7 2;
#X connect 9 0 11 0;
#X connect 11 0 1 0;
#X connect 11 1 10 0;
#X connect 13 0 12 0;
#X connect 14 0 12 0;
#X connect 15 0 7 0;
#X restore 37 69 pd repeater;
#X connect 1 0 5 0;
#X connect 2 0 0 0;
#X connect 3 0 4 0;
#X connect 5 0 3 0;
#X connect 5 1 3 1;
#X connect 5 2 2 0;
