#N canvas 358 334 351 265 10;
#X obj 204 149 outlet~;
#X obj 77 29 inlet;
#N canvas 458 75 506 635 tone 0;
#X obj 55 383 osc~;
#X floatatom 55 292 5 0 0 0 - - -, f 5;
#X obj 55 489 *~;
#X obj 225 309 bng 15 250 50 0 empty empty empty 17 7 0 10 -262144
-1 -1;
#X obj 55 266 mtof;
#X floatatom 55 185 5 0 0 0 - - -, f 5;
#X obj 55 539 outlet~;
#X obj 55 68 inlet;
#X obj 55 121 * 24;
#X obj 55 155 + 60;
#X obj 55 213 t b f;
#X msg 55 91 \$2;
#X obj 55 512 *~ 0.9;
#X obj 90 383 osc~;
#X obj 150 388 osc~;
#X obj 90 339 * 2;
#X obj 150 340 * 3;
#X obj 225 388 vline~;
#X msg 225 355 0.8 5 \, 0.7 5 5 \, 0.3 200 10 \, 0 500 210;
#X obj 225 420 *~;
#X obj 90 422 *~ 0.05;
#X obj 150 421 *~ 0.02;
#X connect 0 0 2 0;
#X connect 1 0 0 0;
#X connect 1 0 15 0;
#X connect 1 0 16 0;
#X connect 2 0 12 0;
#X connect 3 0 18 0;
#X connect 4 0 1 0;
#X connect 5 0 10 0;
#X connect 7 0 11 0;
#X connect 8 0 9 0;
#X connect 9 0 5 0;
#X connect 10 0 3 0;
#X connect 10 1 4 0;
#X connect 11 0 8 0;
#X connect 12 0 6 0;
#X connect 13 0 20 0;
#X connect 14 0 21 0;
#X connect 15 0 13 0;
#X connect 16 0 14 0;
#X connect 17 0 19 1;
#X connect 17 0 19 0;
#X connect 18 0 17 0;
#X connect 19 0 2 1;
#X connect 20 0 2 0;
#X connect 21 0 2 0;
#X restore 204 122 pd tone;
#N canvas 241 139 626 563 visual 0;
#X obj 16 6 inlet;
#X obj 16 269 nbx 5 14 -1e+37 1e+37 0 0 empty empty empty 0 -8 0 10
-262144 -1 -1 0.15 256;
#X obj 16 295 pack 0 0 0, f 22;
#X obj 145 269 nbx 5 14 -1e+37 1e+37 0 0 empty empty empty 0 -8 0 10
-262144 -1 -1 0 256;
#X obj 80 269 nbx 5 14 -1e+37 1e+37 0 0 empty empty empty 0 -8 0 10
-262144 -1 -1 0 256;
#X text 100 253 x;
#X text 164 253 y;
#X text 21 253 radius;
#X msg 16 325 \$2 \$3 \$1;
#X obj 16 41 t b l, f 42;
#X obj 96 190 unpack;
#X obj 145 216 * -1;
#X obj 145 238 + 1;
#X obj 391 271 nbx 5 14 -1e+37 1e+37 0 0 empty empty empty 0 -8 0 10
-262144 -1 -1 0.16 256;
#X obj 391 297 pack 0 0 0, f 22;
#X obj 520 271 nbx 5 14 -1e+37 1e+37 0 0 empty empty empty 0 -8 0 10
-262144 -1 -1 0 256;
#X obj 455 271 nbx 5 14 -1e+37 1e+37 0 0 empty empty empty 0 -8 0 10
-262144 -1 -1 0 256;
#X msg 391 327 \$2 \$3 \$1;
#X obj 471 192 unpack;
#X obj 520 218 * -1;
#X obj 520 240 + 1;
#X obj 391 232 + 0.01;
#X obj 16 520 outlet;
#X obj 16 98 line 40;
#X msg 391 406 list /ppLCD paintoval \$1 \$2 \$3 \$4;
#X msg 16 406 list /ppLCD paintoval \$1 \$2 \$3 \$4 \$5 \$6 \$7 1;
#N canvas 46 92 931 454 RadXYtoXYcolour 0;
#X obj 33 52 inlet;
#X obj 33 381 outlet;
#X obj 33 278 expr $f1 - $f3;
#X obj 304 278 expr $f1 + $f3;
#X obj 168 278 expr $f2 - $f3*$f4;
#X obj 440 278 expr $f2 + $f3*$f4;
#X obj 320 225 nbx 5 14 -1e+37 1e+37 0 0 empty empty empty 0 -8 0 10
-262144 -1 -1 0.6 256;
#X obj 319 203 receive XYoffset;
#X obj 33 336 pack 0 0 0 0 0 0 0, f 136;
#X obj 33 114 t l l l l l, f 91;
#N canvas 940 39 347 417 scalecolour 0;
#X obj 40 18 inlet;
#X obj 40 236 outlet;
#X obj 97 237 outlet;
#X obj 154 238 outlet;
#X obj 40 179 * 0.857;
#X obj 97 179 * 0.547;
#X obj 154 181 * 0.284;
#X obj 40 207 + 0.043;
#X obj 97 207 + 0.353;
#X obj 154 209 + 0.616;
#X msg 40 46 \$3;
#X obj 40 115 * 1;
#X obj 40 74 * 5, f 41;
#X obj 107 120 expr sin(($f1-0.5)*3.141592)*0.5+0.5;
#X connect 0 0 10 0;
#X connect 4 0 7 0;
#X connect 5 0 8 0;
#X connect 6 0 9 0;
#X connect 7 0 1 0;
#X connect 8 0 2 0;
#X connect 9 0 3 0;
#X connect 10 0 12 0;
#X connect 11 0 4 0;
#X connect 11 0 5 0;
#X connect 11 0 6 0;
#X connect 12 0 13 0;
#X connect 13 0 11 0;
#X connect 13 0 11 1;
#X restore 576 278 pd scalecolour;
#X text 80 51 list of X Y and radius;
#X text 95 382 list of X1 Y1 X2 Y2 R G B A;
#X connect 0 0 9 0;
#X connect 2 0 8 0;
#X connect 3 0 8 2;
#X connect 4 0 8 1;
#X connect 5 0 8 3;
#X connect 6 0 4 3;
#X connect 6 0 5 3;
#X connect 7 0 6 0;
#X connect 8 0 1 0;
#X connect 9 0 2 0;
#X connect 9 1 4 0;
#X connect 9 2 3 0;
#X connect 9 3 5 0;
#X connect 9 4 10 0;
#X connect 10 0 8 4;
#X connect 10 1 8 5;
#X connect 10 2 8 6;
#X restore 16 370 pd RadXYtoXYcolour;
#N canvas 46 92 650 443 RadXYtoXY 0;
#X obj 33 82 inlet;
#X obj 33 370 outlet;
#X obj 33 277 expr $f1 - $f3;
#X obj 327 277 expr $f1 + $f3;
#X obj 180 278 expr $f2 - $f3*$f4;
#X obj 474 276 expr $f2 + $f3*$f4;
#X obj 368 203 nbx 5 14 -1e+37 1e+37 0 0 empty empty empty 0 -8 0 10
-262144 -1 -1 0.6 256;
#X obj 367 181 receive XYoffset;
#X text 80 81 list of X Y and radius;
#X obj 33 144 t l l l l, f 74;
#X obj 33 325 pack 0 0 0 0, f 74;
#X text 96 371 list of X1 Y1 X2 Y2;
#X connect 0 0 9 0;
#X connect 2 0 10 0;
#X connect 3 0 10 2;
#X connect 4 0 10 1;
#X connect 5 0 10 3;
#X connect 6 0 4 3;
#X connect 6 0 5 3;
#X connect 7 0 6 0;
#X connect 9 0 2 0;
#X connect 9 1 4 0;
#X connect 9 2 3 0;
#X connect 9 3 5 0;
#X connect 10 0 1 0;
#X restore 391 358 pd RadXYtoXY;
#X text 475 255 x;
#X text 534 256 y;
#X text 396 255 radius;
#X text 91 324 Draw circle;
#X text 466 324 Erase circle;
#X msg 16 73 0 \, 0.2 800;
#X obj 391 207 pipe 300;
#X connect 0 0 9 0;
#X connect 1 0 2 0;
#X connect 2 0 8 0;
#X connect 3 0 2 2;
#X connect 4 0 2 1;
#X connect 8 0 26 0;
#X connect 9 0 33 0;
#X connect 9 1 10 0;
#X connect 9 1 18 0;
#X connect 10 0 4 0;
#X connect 10 1 11 0;
#X connect 11 0 12 0;
#X connect 12 0 3 0;
#X connect 13 0 14 0;
#X connect 14 0 17 0;
#X connect 15 0 14 2;
#X connect 16 0 14 1;
#X connect 17 0 27 0;
#X connect 18 0 16 0;
#X connect 18 1 19 0;
#X connect 19 0 20 0;
#X connect 20 0 15 0;
#X connect 21 0 13 0;
#X connect 23 0 1 0;
#X connect 23 0 34 0;
#X connect 24 0 22 0;
#X connect 25 0 22 0;
#X connect 26 0 25 0;
#X connect 27 0 24 0;
#X connect 33 0 23 0;
#X connect 34 0 21 0;
#X restore 77 119 pd visual;
#X obj 77 149 send paintDroplet;
#X obj 77 74 route 1;
#X text 129 73 only consider "note-ons";
#X connect 1 0 5 0;
#X connect 2 0 0 0;
#X connect 3 0 4 0;
#X connect 5 0 2 0;
#X connect 5 0 3 0;
